{"title":"Dragon.Ball.Super.S04E31.DUBBED.720p.HDTV.x264-CRiMSON","magnet":"magnet:?xt=urn:btih:c3cdd4594fe4feba4619aa56e88ad598af180eb0&dn=Dragon.Ball.Super.S04E31.DUBBED.720p.HDTV.x264-CRiMSON&tr=udp%3A%2F%2Ftracker.leechers-paradise.org%3A6969&tr=udp%3A%2F%2Fzer0day.ch%3A1337&tr=udp%3A%2F%2Fopen.demonii.com%3A1337&tr=udp%3A%2F%2Ftracker.coppersurfer.tk%3A6969&tr=udp%3A%2F%2Fexodus.desync.com%3A6969","uploader":"mocioni","categoryP":"video","categoryS":"hd___tv_shows","size":"589774232","seeders":"0","leechers":"0","description":" <a href=\"https://www.imdb.com/title/tt4644488/\" rel=\"nofollow\" target=\"_NEW\">https://www.imdb.com/title/tt4644488/</a>\r\n\r\nVideo\r\nID : 3\r\nFormat : AVC\r\nFormat/Info : Advanced Video Codec\r\nFormat profile : High@L4.1\r\nFormat settings : CABAC / 5 Ref Frames\r\nFormat settings, CABAC : Yes\r\nFormat settings, RefFrames : 5 frames\r\nCodec ID : V_MPEG4/ISO/AVC\r\nDuration : 22 min 4 s\r\nBit rate : 3 113 kb/s\r\nWidth : 1 280 pixels\r\nHeight : 720 pixels\r\nDisplay aspect ratio : 16:9\r\nFrame rate mode : Constant\r\nFrame rate : 23.976 (24000/1001) FPS\r\nColor space : YUV\r\nChroma subsampling : 4:2:0\r\nBit depth : 8 bits\r\nScan type : Progressive\r\nBits/(Pixel*Frame) : 0.141\r\nStream size : 491 MiB (87%)\r\nWriting library : x264 core 155 r2901 7d0ff22\r\nEncoding settings : cabac=1 / ref=5 / deblock=1:0:0 / analyse=0x3:0x113 / me=umh / subme=8 / psy=1 / psy_rd=1.00:0.15 / mixed_ref=1 / me_range=16 / chroma_me=1 / trellis=2 / 8x8dct=1 / cqm=0 / deadzone=21,11 / fast_pskip=1 / chroma_qp_offset=-3 / threads=12 / lookahead_threads=2 / sliced_threads=0 / nr=0 / decimate=1 / interlaced=0 / bluray_compat=0 / constrained_intra=0 / bframes=3 / b_pyramid=2 / b_adapt=2 / b_bias=0 / direct=3 / weightb=1 / open_gop=0 / weightp=2 / keyint=240 / keyint_min=23 / scenecut=40 / intra_refresh=0 / rc_lookahead=50 / rc=crf / mbtree=1 / crf=18.0 / qcomp=0.60 / qpmin=0 / qpmax=69 / qpstep=4 / vbv_maxrate=62500 / vbv_bufsize=78125 / crf_max=0.0 / nal_hrd=none / filler=0 / ip_ratio=1.40 / aq=1:1.00\r\nLanguage : English\r\nDefault : Yes\r\nForced : No\r\nColor range : Limited\r\nMatrix coefficients : BT.709\r\n\r\nAudio\r\nID : 2\r\nFormat : AC-3\r\nFormat/Info : Audio Coding 3\r\nFormat settings, Endianness : Big\r\nCodec ID : A_AC3\r\nDuration : 22 min 4 s\r\nBit rate mode : Constant\r\nBit rate : 448 kb/s\r\nChannel(s) : 6 channels\r\nChannel positions : Front: L C R, Side: L R, LFE\r\nSampling rate : 48.0 kHz\r\nFrame rate : 31.250 FPS (1536 SPF)\r\nBit depth : 16 bits\r\nCompression mode : Lossy\r\nDelay relative to video : 20 ms\r\nStream size : 70.7 MiB (13%)\r\nService kind : Complete Main\r\nDefault : Yes\r\nForced : No\r\n\r\nText\r\nID : 1\r\nFormat : UTF-8\r\nCodec ID : S_TEXT/UTF8\r\nCodec ID/Info : UTF-8 Plain Text\r\nDuration : 21 min 51 s\r\nBit rate : 133 b/s\r\nCount of elements : 505\r\nStream size : 21.3 KiB (0%)\r\nLanguage : English\r\nDefault : No\r\nForced : No","last_updated":"2018-08-26T12:00:35.421Z","parsed":{"xt":"urn:btih:c3cdd4594fe4feba4619aa56e88ad598af180eb0","dn":"Dragon.Ball.Super.S04E31.DUBBED.720p.HDTV.x264-CRiMSON","tr":["udp://exodus.desync.com:6969","udp://open.demonii.com:1337","udp://tracker.coppersurfer.tk:6969","udp://tracker.leechers-paradise.org:6969","udp://zer0day.ch:1337"],"infoHash":"c3cdd4594fe4feba4619aa56e88ad598af180eb0","infoHashBuffer":{"type":"Buffer","data":[195,205,212,89,79,228,254,186,70,25,170,86,232,138,213,152,175,24,14,176]},"name":"Dragon.Ball.Super.S04E31.DUBBED.720p.HDTV.x264-CRiMSON","announce":["udp://exodus.desync.com:6969","udp://open.demonii.com:1337","udp://tracker.coppersurfer.tk:6969","udp://tracker.leechers-paradise.org:6969","udp://zer0day.ch:1337"],"urlList":[]}}